# xmcd
#
# Track frame offsets:
#	150
#	14175
#	30762
#	43375
#	61705
#	88712
#	106337
#	123562
#	139342
#	158620
#
# Disc length: 2419 seconds
#
# Revision: 1
# Processed by: cddbd v1.5.2PL0 Copyright (c) Steve Scherf et al.
# Submitted via: audiograbber 1.83.01
#
DISCID=8109710a
DTITLE=Steve Young - To Satisy You
DYEAR=1982
DGENRE=Country
TTITLE0=Think It Over
TTITLE1=To Satisy You
TTITLE2=Top Of The World
TTITLE3=No Expectations
TTITLE4=The Contender
TTITLE5=Corinna Corinna
TTITLE6=All Your Stories
TTITLE7=Wild World
TTITLE8=They Call It Love
TTITLE9=The River And The Swan
EXTD=
EXTT0=
EXTT1=
EXTT2=
EXTT3=
EXTT4=
EXTT5=
EXTT6=
EXTT7=
EXTT8=
EXTT9=
PLAYORDER=
